<svg xmlns="http://www.w3.org/2000/svg">
<symbol id="icon-angle-down" viewBox="0 0 17 9.2"><path d="M16.7.3c-.2-.2-.4-.3-.7-.3-.3 0-.5.1-.7.3L8.5 6.8 1.7.3C1.3-.1.7-.1.3.3s-.4 1 0 1.4l7.5 7.2c.2.2.4.3.7.3s.5-.1.7-.3l7.5-7.2c.4-.4.4-1 0-1.4z"/></symbol>
<symbol id="icon-facebook" viewBox="0 0 25.2 25.2"><path d="M23.8 0H1.4C.6 0 0 .6 0 1.4v22.4c0 .8.6 1.4 1.4 1.4h12.1v-9.8h-3.3v-3.8h3.3V8.8c0-3.3 2-5 4.9-5 1 0 2 0 2.9.1v3.4h-2c-1.6 0-1.9.8-1.9 1.9v2.4h3.8l-.5 3.8h-3.3v9.8h6.4c.8 0 1.4-.6 1.4-1.4V1.4c0-.8-.6-1.4-1.4-1.4z"/></symbol>
<symbol id="icon-mail" viewBox="0 0 512 384"><path d="M464 0H48C21.5 0 0 21.5 0 48v288c0 26.5 21.5 48 48 48h416c26.5 0 48-21.5 48-48V48c0-26.5-21.5-48-48-48zm0 32c2.2 0 4.2.5 6.1 1.2L256 218.8 41.9 33.2c1.9-.8 4-1.2 6.1-1.2h416zm0 320H48c-8.8 0-16-7.2-16-16V67l213.5 185c3 2.6 6.8 3.9 10.5 3.9s7.5-1.3 10.5-3.9L480 67v269c0 8.8-7.2 16-16 16z"/></symbol>
<symbol id="icon-play" viewBox="0 0 16.3 20"><path d="M1 20c-.2 0-.3 0-.5-.1-.3-.2-.5-.5-.5-.9V1C0 .6.2.3.5.1c.3-.2.7-.2 1 0l14.3 9c.3.2.5.5.5.8s-.2.7-.5.8l-14.3 9c-.1.2-.3.3-.5.3zM2 2.8v14.4L13.4 10 2 2.8z"/></symbol>
<symbol id="icon-twitter" viewBox="0 0 25.2 20.5"><path d="M25.2 2.4c-.9.4-1.9.7-3 .8 1.1-.6 1.9-1.7 2.3-2.9-1 .6-2.1 1-3.3 1.3-2-2.1-5.2-2.2-7.3-.2-1 1-1.6 2.3-1.6 3.8 0 .4 0 .8.1 1.2-4.1-.3-8-2.2-10.6-5.4-1.4 2.3-.7 5.3 1.6 6.9-.9-.1-1.7-.3-2.4-.7v.1c0 2.5 1.7 4.6 4.2 5.1-.8.2-1.6.2-2.3.1.6 2 2.5 3.5 4.8 3.5-1.8 1.4-4.1 2.2-6.4 2.2-.4 0-.8 0-1.2-.1 2.4 1.5 5.1 2.3 7.9 2.3 9.5 0 14.7-7.9 14.7-14.7v-.6c1-.7 1.8-1.6 2.5-2.7z"/></symbol>
<symbol id="icon-whatsup" viewBox="0 0 25.2 25.3"><path d="M0 25.3l1.8-6.5C-1.7 12.8.4 5.1 6.4 1.7c6-3.5 13.7-1.4 17.1 4.6 3.5 6 1.4 13.7-4.6 17.1-3.8 2.2-8.4 2.2-12.3.1L0 25.3zm7-4l.4.2c1.6 1 3.4 1.5 5.3 1.5 5.8 0 10.4-4.7 10.4-10.4 0-2.8-1.1-5.4-3.1-7.4-1.9-2-4.6-3.1-7.4-3.1-5.7 0-10.4 4.7-10.4 10.5 0 2 .5 3.9 1.6 5.5l.2.4-1 3.8 4-1z"/><path d="M19 15.5c-.1-.1-.3-.2-.6-.4s-1.9-.9-2.1-1c-.3-.1-.5-.2-.7.2-.2.3-.8 1-1 1.2-.2.2-.4.2-.7.1-.9-.4-1.8-.9-2.5-1.6-.7-.6-1.3-1.4-1.7-2.2-.1-.2-.1-.5.1-.6.1-.1.3-.4.5-.5.1-.2.2-.3.3-.5.1-.2.1-.4 0-.5-.1-.2-.7-1.7-1-2.3-.3-.7-.6-.6-.8-.6h-.6c-.3 0-.6.2-.8.4-.7.7-1.1 1.6-1.1 2.6 0 1.5 1.1 3 1.3 3.2.2.2 2.2 3.4 5.4 4.7.6.2 1.2.5 1.8.7.6.2 1.3.2 2 .1.6-.1 1.9-.8 2.1-1.5.1-.4.2-.9.1-1.5z"/></symbol>
<symbol id="icon-x" viewBox="0 0 48 48"><path d="M28.2 24L47.1 5.1c1.2-1.2 1.2-3.1 0-4.2C45.9-.3 44-.3 42.9.9L24 19.7 5.1.9C3.9-.3 2-.3.9.9-.3 2.1-.3 4 .9 5.1L19.7 24 .9 42.8C-.3 44-.3 45.9.9 47c.6.7 1.3 1 2.1 1s1.5-.3 2.1-.9L24 28.2l18.9 18.9c.6.6 1.4.9 2.1.9s1.5-.3 2.1-.9c1.2-1.2 1.2-3.1 0-4.2L28.2 24z"/></symbol>
</svg>